<?xml version="1.0" encoding="us-ascii" standalone="no"?><svg xmlns="http://www.w3.org/2000/svg" xmlns:xlink="http://www.w3.org/1999/xlink" contentStyleType="text/css" height="714px" preserveAspectRatio="none" style="width:1460px;height:714px;background:#FFFFFF;" version="1.1" viewBox="0 0 1460 714" width="1460px" zoomAndPan="magnify"><defs/><g><!--class Users--><g id="elem_Users"><rect codeLine="24" fill="#D8F5FF" height="145.6563" id="Users" rx="2.5" ry="2.5" style="stroke:#1E90FF;stroke-width:0.5;" width="76" x="1356" y="7"/><ellipse cx="1374.6" cy="23" fill="#ADD1B2" rx="11" ry="11" style="stroke:#181818;stroke-width:1.0;"/><path d="M1377.3656,18.875 Q1377.5219,18.6563 1377.7094,18.5469 Q1377.8969,18.4375 1378.1156,18.4375 Q1378.4906,18.4375 1378.725,18.7031 Q1378.9594,18.9531 1378.9594,19.5625 L1378.9594,21.0156 Q1378.9594,21.625 1378.725,21.8906 Q1378.4906,22.1563 1378.1156,22.1563 Q1377.7719,22.1563 1377.5688,21.9531 Q1377.3656,21.7656 1377.2563,21.25 Q1377.2094,20.8906 1377.0219,20.7031 Q1376.6938,20.3281 1376.0844,20.1094 Q1375.475,19.8906 1374.85,19.8906 Q1374.0844,19.8906 1373.4438,20.2188 Q1372.8188,20.5469 1372.3188,21.2969 Q1371.8344,22.0469 1371.8344,23.0781 L1371.8344,24.1719 Q1371.8344,25.4063 1372.725,26.2344 Q1373.6156,27.0469 1375.2094,27.0469 Q1376.1469,27.0469 1376.8031,26.7969 Q1377.1938,26.6406 1377.6156,26.2031 Q1377.8813,25.9375 1378.0219,25.8594 Q1378.1781,25.7813 1378.3813,25.7813 Q1378.7094,25.7813 1378.9594,26.0469 Q1379.225,26.2969 1379.225,26.6406 Q1379.225,26.9844 1378.8813,27.3906 Q1378.3813,27.9688 1377.5844,28.2969 Q1376.5063,28.75 1375.2094,28.75 Q1373.6938,28.75 1372.4906,28.125 Q1371.5063,27.625 1370.8188,26.5625 Q1370.1313,25.4844 1370.1313,24.2031 L1370.1313,23.0469 Q1370.1313,21.7188 1370.7406,20.5781 Q1371.3656,19.4219 1372.4594,18.8125 Q1373.5531,18.1875 1374.7875,18.1875 Q1375.5219,18.1875 1376.1625,18.3594 Q1376.8188,18.5156 1377.3656,18.875 Z " fill="#000000"/><text fill="#000000" font-family="sans-serif" font-size="14" lengthAdjust="spacing" textLength="36" x="1389.4" y="28.7285">Users</text><line style="stroke:#1E90FF;stroke-width:0.5;" x1="1357" x2="1431" y1="39" y2="39"/><text fill="#000000" font-family="sans-serif" font-size="14" lengthAdjust="spacing" textLength="64" x="1362" y="57.5332">Username</text><text fill="#000000" font-family="sans-serif" font-size="14" lengthAdjust="spacing" textLength="29" x="1362" y="75.1426">Role</text><text fill="#000000" font-family="sans-serif" font-size="14" lengthAdjust="spacing" textLength="34" x="1362" y="92.752">Email</text><text fill="#000000" font-family="sans-serif" font-size="14" lengthAdjust="spacing" textLength="59" x="1362" y="110.3613">firstName</text><text fill="#000000" font-family="sans-serif" font-size="14" lengthAdjust="spacing" textLength="58" x="1362" y="127.9707">lastName</text><text fill="#000000" font-family="sans-serif" font-size="14" lengthAdjust="spacing" textLength="54" x="1362" y="145.5801">fullName</text></g><!--class Patient--><g id="elem_Patient"><rect codeLine="33" fill="#D8F5FF" height="110.4375" id="Patient" rx="2.5" ry="2.5" style="stroke:#1E90FF;stroke-width:0.5;" width="131" x="839.5" y="42"/><ellipse cx="879.25" cy="58" fill="#ADD1B2" rx="11" ry="11" style="stroke:#181818;stroke-width:1.0;"/><path d="M882.0156,53.875 Q882.1719,53.6563 882.3594,53.5469 Q882.5469,53.4375 882.7656,53.4375 Q883.1406,53.4375 883.375,53.7031 Q883.6094,53.9531 883.6094,54.5625 L883.6094,56.0156 Q883.6094,56.625 883.375,56.8906 Q883.1406,57.1563 882.7656,57.1563 Q882.4219,57.1563 882.2188,56.9531 Q882.0156,56.7656 881.9063,56.25 Q881.8594,55.8906 881.6719,55.7031 Q881.3438,55.3281 880.7344,55.1094 Q880.125,54.8906 879.5,54.8906 Q878.7344,54.8906 878.0938,55.2188 Q877.4688,55.5469 876.9688,56.2969 Q876.4844,57.0469 876.4844,58.0781 L876.4844,59.1719 Q876.4844,60.4063 877.375,61.2344 Q878.2656,62.0469 879.8594,62.0469 Q880.7969,62.0469 881.4531,61.7969 Q881.8438,61.6406 882.2656,61.2031 Q882.5313,60.9375 882.6719,60.8594 Q882.8281,60.7813 883.0313,60.7813 Q883.3594,60.7813 883.6094,61.0469 Q883.875,61.2969 883.875,61.6406 Q883.875,61.9844 883.5313,62.3906 Q883.0313,62.9688 882.2344,63.2969 Q881.1563,63.75 879.8594,63.75 Q878.3438,63.75 877.1406,63.125 Q876.1563,62.625 875.4688,61.5625 Q874.7813,60.4844 874.7813,59.2031 L874.7813,58.0469 Q874.7813,56.7188 875.3906,55.5781 Q876.0156,54.4219 877.1094,53.8125 Q878.2031,53.1875 879.4375,53.1875 Q880.1719,53.1875 880.8125,53.3594 Q881.4688,53.5156 882.0156,53.875 Z " fill="#000000"/><text fill="#000000" font-family="sans-serif" font-size="14" lengthAdjust="spacing" textLength="44" x="898.75" y="63.7285">Patient</text><line style="stroke:#1E90FF;stroke-width:0.5;" x1="840.5" x2="969.5" y1="74" y2="74"/><text fill="#000000" font-family="sans-serif" font-size="14" lengthAdjust="spacing" textLength="72" x="845.5" y="92.5332">dateOfBirth</text><text fill="#000000" font-family="sans-serif" font-size="14" lengthAdjust="spacing" textLength="48" x="845.5" y="110.1426">Gender</text><text fill="#000000" font-family="sans-serif" font-size="14" lengthAdjust="spacing" textLength="90" x="845.5" y="127.752">recordNumber</text><text fill="#000000" font-family="sans-serif" font-size="14" lengthAdjust="spacing" textLength="119" x="845.5" y="145.3613">emergencyContact</text></g><!--class Staff--><g id="elem_Staff"><rect codeLine="40" fill="#D8F5FF" height="75.2188" id="Staff" rx="2.5" ry="2.5" style="stroke:#1E90FF;stroke-width:0.5;" width="108" x="1085" y="275.5"/><ellipse cx="1121.15" cy="291.5" fill="#ADD1B2" rx="11" ry="11" style="stroke:#181818;stroke-width:1.0;"/><path d="M1123.9156,287.375 Q1124.0719,287.1563 1124.2594,287.0469 Q1124.4469,286.9375 1124.6656,286.9375 Q1125.0406,286.9375 1125.275,287.2031 Q1125.5094,287.4531 1125.5094,288.0625 L1125.5094,289.5156 Q1125.5094,290.125 1125.275,290.3906 Q1125.0406,290.6563 1124.6656,290.6563 Q1124.3219,290.6563 1124.1188,290.4531 Q1123.9156,290.2656 1123.8063,289.75 Q1123.7594,289.3906 1123.5719,289.2031 Q1123.2438,288.8281 1122.6344,288.6094 Q1122.025,288.3906 1121.4,288.3906 Q1120.6344,288.3906 1119.9938,288.7188 Q1119.3688,289.0469 1118.8688,289.7969 Q1118.3844,290.5469 1118.3844,291.5781 L1118.3844,292.6719 Q1118.3844,293.9063 1119.275,294.7344 Q1120.1656,295.5469 1121.7594,295.5469 Q1122.6969,295.5469 1123.3531,295.2969 Q1123.7438,295.1406 1124.1656,294.7031 Q1124.4313,294.4375 1124.5719,294.3594 Q1124.7281,294.2813 1124.9313,294.2813 Q1125.2594,294.2813 1125.5094,294.5469 Q1125.775,294.7969 1125.775,295.1406 Q1125.775,295.4844 1125.4313,295.8906 Q1124.9313,296.4688 1124.1344,296.7969 Q1123.0563,297.25 1121.7594,297.25 Q1120.2438,297.25 1119.0406,296.625 Q1118.0563,296.125 1117.3688,295.0625 Q1116.6813,293.9844 1116.6813,292.7031 L1116.6813,291.5469 Q1116.6813,290.2188 1117.2906,289.0781 Q1117.9156,287.9219 1119.0094,287.3125 Q1120.1031,286.6875 1121.3375,286.6875 Q1122.0719,286.6875 1122.7125,286.8594 Q1123.3688,287.0156 1123.9156,287.375 Z " fill="#000000"/><text fill="#000000" font-family="sans-serif" font-size="14" lengthAdjust="spacing" textLength="29" x="1139.85" y="297.2285">Staff</text><line style="stroke:#1E90FF;stroke-width:0.5;" x1="1086" x2="1192" y1="307.5" y2="307.5"/><text fill="#000000" font-family="sans-serif" font-size="14" lengthAdjust="spacing" textLength="93" x="1091" y="326.0332">licenseNumber</text><text fill="#000000" font-family="sans-serif" font-size="14" lengthAdjust="spacing" textLength="96" x="1091" y="343.6426">availabilitySlots</text></g><!--class OperationRequest--><g id="elem_OperationRequest"><rect codeLine="45" fill="#D8F5FF" height="110.4375" id="OperationRequest" rx="2.5" ry="2.5" style="stroke:#1E90FF;stroke-width:0.5;" width="148" x="562" y="340"/><ellipse cx="577" cy="356" fill="#ADD1B2" rx="11" ry="11" style="stroke:#181818;stroke-width:1.0;"/><path d="M579.7656,351.875 Q579.9219,351.6563 580.1094,351.5469 Q580.2969,351.4375 580.5156,351.4375 Q580.8906,351.4375 581.125,351.7031 Q581.3594,351.9531 581.3594,352.5625 L581.3594,354.0156 Q581.3594,354.625 581.125,354.8906 Q580.8906,355.1563 580.5156,355.1563 Q580.1719,355.1563 579.9688,354.9531 Q579.7656,354.7656 579.6563,354.25 Q579.6094,353.8906 579.4219,353.7031 Q579.0938,353.3281 578.4844,353.1094 Q577.875,352.8906 577.25,352.8906 Q576.4844,352.8906 575.8438,353.2188 Q575.2188,353.5469 574.7188,354.2969 Q574.2344,355.0469 574.2344,356.0781 L574.2344,357.1719 Q574.2344,358.4063 575.125,359.2344 Q576.0156,360.0469 577.6094,360.0469 Q578.5469,360.0469 579.2031,359.7969 Q579.5938,359.6406 580.0156,359.2031 Q580.2813,358.9375 580.4219,358.8594 Q580.5781,358.7813 580.7813,358.7813 Q581.1094,358.7813 581.3594,359.0469 Q581.625,359.2969 581.625,359.6406 Q581.625,359.9844 581.2813,360.3906 Q580.7813,360.9688 579.9844,361.2969 Q578.9063,361.75 577.6094,361.75 Q576.0938,361.75 574.8906,361.125 Q573.9063,360.625 573.2188,359.5625 Q572.5313,358.4844 572.5313,357.2031 L572.5313,356.0469 Q572.5313,354.7188 573.1406,353.5781 Q573.7656,352.4219 574.8594,351.8125 Q575.9531,351.1875 577.1875,351.1875 Q577.9219,351.1875 578.5625,351.3594 Q579.2188,351.5156 579.7656,351.875 Z " fill="#000000"/><text fill="#000000" font-family="sans-serif" font-size="14" lengthAdjust="spacing" textLength="116" x="591" y="361.7285">OperationRequest</text><line style="stroke:#1E90FF;stroke-width:0.5;" x1="563" x2="709" y1="372" y2="372"/><text fill="#000000" font-family="sans-serif" font-size="14" lengthAdjust="spacing" textLength="61" x="568" y="390.5332">requestID</text><text fill="#000000" font-family="sans-serif" font-size="14" lengthAdjust="spacing" textLength="84" x="568" y="408.1426">deadlineDate</text><text fill="#000000" font-family="sans-serif" font-size="14" lengthAdjust="spacing" textLength="43" x="568" y="425.752">priority</text><text fill="#000000" font-family="sans-serif" font-size="14" lengthAdjust="spacing" textLength="38" x="568" y="443.3613">status</text></g><!--class OperationType--><g id="elem_OperationType"><rect codeLine="52" fill="#D8F5FF" height="110.4375" id="OperationType" rx="2.5" ry="2.5" style="stroke:#1E90FF;stroke-width:0.5;" width="188" x="811" y="258"/><ellipse cx="853.45" cy="274" fill="#ADD1B2" rx="11" ry="11" style="stroke:#181818;stroke-width:1.0;"/><path d="M856.2156,269.875 Q856.3719,269.6563 856.5594,269.5469 Q856.7469,269.4375 856.9656,269.4375 Q857.3406,269.4375 857.575,269.7031 Q857.8094,269.9531 857.8094,270.5625 L857.8094,272.0156 Q857.8094,272.625 857.575,272.8906 Q857.3406,273.1563 856.9656,273.1563 Q856.6219,273.1563 856.4188,272.9531 Q856.2156,272.7656 856.1063,272.25 Q856.0594,271.8906 855.8719,271.7031 Q855.5438,271.3281 854.9344,271.1094 Q854.325,270.8906 853.7,270.8906 Q852.9344,270.8906 852.2938,271.2188 Q851.6688,271.5469 851.1688,272.2969 Q850.6844,273.0469 850.6844,274.0781 L850.6844,275.1719 Q850.6844,276.4063 851.575,277.2344 Q852.4656,278.0469 854.0594,278.0469 Q854.9969,278.0469 855.6531,277.7969 Q856.0438,277.6406 856.4656,277.2031 Q856.7313,276.9375 856.8719,276.8594 Q857.0281,276.7813 857.2313,276.7813 Q857.5594,276.7813 857.8094,277.0469 Q858.075,277.2969 858.075,277.6406 Q858.075,277.9844 857.7313,278.3906 Q857.2313,278.9688 856.4344,279.2969 Q855.3563,279.75 854.0594,279.75 Q852.5438,279.75 851.3406,279.125 Q850.3563,278.625 849.6688,277.5625 Q848.9813,276.4844 848.9813,275.2031 L848.9813,274.0469 Q848.9813,272.7188 849.5906,271.5781 Q850.2156,270.4219 851.3094,269.8125 Q852.4031,269.1875 853.6375,269.1875 Q854.3719,269.1875 855.0125,269.3594 Q855.6688,269.5156 856.2156,269.875 Z " fill="#000000"/><text fill="#000000" font-family="sans-serif" font-size="14" lengthAdjust="spacing" textLength="95" x="873.55" y="279.7285">OperationType</text><line style="stroke:#1E90FF;stroke-width:0.5;" x1="812" x2="998" y1="290" y2="290"/><text fill="#000000" font-family="sans-serif" font-size="14" lengthAdjust="spacing" textLength="40" x="817" y="308.5332">typeID</text><text fill="#000000" font-family="sans-serif" font-size="14" lengthAdjust="spacing" textLength="35" x="817" y="326.1426">name</text><text fill="#000000" font-family="sans-serif" font-size="14" lengthAdjust="spacing" textLength="176" x="817" y="343.752">requiredStaffBySpecilization</text><text fill="#000000" font-family="sans-serif" font-size="14" lengthAdjust="spacing" textLength="115" x="817" y="361.3613">estimatedDuration</text></g><!--class Phone--><g id="elem_Phone"><rect codeLine="59" fill="#D8F5FF" height="57.6094" id="Phone" rx="2.5" ry="2.5" style="stroke:#1E90FF;stroke-width:0.5;" width="101" x="1343.5" y="195"/><ellipse cx="1371.1" cy="211" fill="#ADD1B2" rx="11" ry="11" style="stroke:#181818;stroke-width:1.0;"/><path d="M1373.8656,206.875 Q1374.0219,206.6563 1374.2094,206.5469 Q1374.3969,206.4375 1374.6156,206.4375 Q1374.9906,206.4375 1375.225,206.7031 Q1375.4594,206.9531 1375.4594,207.5625 L1375.4594,209.0156 Q1375.4594,209.625 1375.225,209.8906 Q1374.9906,210.1563 1374.6156,210.1563 Q1374.2719,210.1563 1374.0688,209.9531 Q1373.8656,209.7656 1373.7563,209.25 Q1373.7094,208.8906 1373.5219,208.7031 Q1373.1938,208.3281 1372.5844,208.1094 Q1371.975,207.8906 1371.35,207.8906 Q1370.5844,207.8906 1369.9438,208.2188 Q1369.3188,208.5469 1368.8188,209.2969 Q1368.3344,210.0469 1368.3344,211.0781 L1368.3344,212.1719 Q1368.3344,213.4063 1369.225,214.2344 Q1370.1156,215.0469 1371.7094,215.0469 Q1372.6469,215.0469 1373.3031,214.7969 Q1373.6938,214.6406 1374.1156,214.2031 Q1374.3813,213.9375 1374.5219,213.8594 Q1374.6781,213.7813 1374.8813,213.7813 Q1375.2094,213.7813 1375.4594,214.0469 Q1375.725,214.2969 1375.725,214.6406 Q1375.725,214.9844 1375.3813,215.3906 Q1374.8813,215.9688 1374.0844,216.2969 Q1373.0063,216.75 1371.7094,216.75 Q1370.1938,216.75 1368.9906,216.125 Q1368.0063,215.625 1367.3188,214.5625 Q1366.6313,213.4844 1366.6313,212.2031 L1366.6313,211.0469 Q1366.6313,209.7188 1367.2406,208.5781 Q1367.8656,207.4219 1368.9594,206.8125 Q1370.0531,206.1875 1371.2875,206.1875 Q1372.0219,206.1875 1372.6625,206.3594 Q1373.3188,206.5156 1373.8656,206.875 Z " fill="#000000"/><text fill="#000000" font-family="sans-serif" font-size="14" lengthAdjust="spacing" textLength="41" x="1387.9" y="216.7285">Phone</text><line style="stroke:#1E90FF;stroke-width:0.5;" x1="1344.5" x2="1443.5" y1="227" y2="227"/><text fill="#000000" font-family="sans-serif" font-size="14" lengthAdjust="spacing" textLength="89" x="1349.5" y="245.5332">phoneNumber</text></g><!--class Appointment--><g id="elem_Appointment"><rect codeLine="63" fill="#D8F5FF" height="92.8281" id="Appointment" rx="2.5" ry="2.5" style="stroke:#1E90FF;stroke-width:0.5;" width="130" x="327" y="381.5"/><ellipse cx="350.55" cy="397.5" fill="#ADD1B2" rx="11" ry="11" style="stroke:#181818;stroke-width:1.0;"/><path d="M353.3156,393.375 Q353.4719,393.1563 353.6594,393.0469 Q353.8469,392.9375 354.0656,392.9375 Q354.4406,392.9375 354.675,393.2031 Q354.9094,393.4531 354.9094,394.0625 L354.9094,395.5156 Q354.9094,396.125 354.675,396.3906 Q354.4406,396.6563 354.0656,396.6563 Q353.7219,396.6563 353.5188,396.4531 Q353.3156,396.2656 353.2063,395.75 Q353.1594,395.3906 352.9719,395.2031 Q352.6438,394.8281 352.0344,394.6094 Q351.425,394.3906 350.8,394.3906 Q350.0344,394.3906 349.3938,394.7188 Q348.7688,395.0469 348.2688,395.7969 Q347.7844,396.5469 347.7844,397.5781 L347.7844,398.6719 Q347.7844,399.9063 348.675,400.7344 Q349.5656,401.5469 351.1594,401.5469 Q352.0969,401.5469 352.7531,401.2969 Q353.1438,401.1406 353.5656,400.7031 Q353.8313,400.4375 353.9719,400.3594 Q354.1281,400.2813 354.3313,400.2813 Q354.6594,400.2813 354.9094,400.5469 Q355.175,400.7969 355.175,401.1406 Q355.175,401.4844 354.8313,401.8906 Q354.3313,402.4688 353.5344,402.7969 Q352.4563,403.25 351.1594,403.25 Q349.6438,403.25 348.4406,402.625 Q347.4563,402.125 346.7688,401.0625 Q346.0813,399.9844 346.0813,398.7031 L346.0813,397.5469 Q346.0813,396.2188 346.6906,395.0781 Q347.3156,393.9219 348.4094,393.3125 Q349.5031,392.6875 350.7375,392.6875 Q351.4719,392.6875 352.1125,392.8594 Q352.7688,393.0156 353.3156,393.375 Z " fill="#000000"/><text fill="#000000" font-family="sans-serif" font-size="14" lengthAdjust="spacing" textLength="79" x="366.45" y="403.2285">Appointment</text><line style="stroke:#1E90FF;stroke-width:0.5;" x1="328" x2="456" y1="413.5" y2="413.5"/><text fill="#000000" font-family="sans-serif" font-size="14" lengthAdjust="spacing" textLength="91" x="333" y="432.0332">appointmentID</text><text fill="#000000" font-family="sans-serif" font-size="14" lengthAdjust="spacing" textLength="84" x="333" y="449.6426">dateAndTime</text><text fill="#000000" font-family="sans-serif" font-size="14" lengthAdjust="spacing" textLength="118" x="333" y="467.252">appointmentStatus</text></g><!--class SurgeryRoom--><g id="elem_SurgeryRoom"><rect codeLine="69" fill="#D8F5FF" height="145.6563" id="SurgeryRoom" rx="2.5" ry="2.5" style="stroke:#1E90FF;stroke-width:0.5;" width="136" x="568" y="562"/><ellipse cx="590.65" cy="578" fill="#ADD1B2" rx="11" ry="11" style="stroke:#181818;stroke-width:1.0;"/><path d="M593.4156,573.875 Q593.5719,573.6563 593.7594,573.5469 Q593.9469,573.4375 594.1656,573.4375 Q594.5406,573.4375 594.775,573.7031 Q595.0094,573.9531 595.0094,574.5625 L595.0094,576.0156 Q595.0094,576.625 594.775,576.8906 Q594.5406,577.1563 594.1656,577.1563 Q593.8219,577.1563 593.6188,576.9531 Q593.4156,576.7656 593.3063,576.25 Q593.2594,575.8906 593.0719,575.7031 Q592.7438,575.3281 592.1344,575.1094 Q591.525,574.8906 590.9,574.8906 Q590.1344,574.8906 589.4938,575.2188 Q588.8688,575.5469 588.3688,576.2969 Q587.8844,577.0469 587.8844,578.0781 L587.8844,579.1719 Q587.8844,580.4063 588.775,581.2344 Q589.6656,582.0469 591.2594,582.0469 Q592.1969,582.0469 592.8531,581.7969 Q593.2438,581.6406 593.6656,581.2031 Q593.9313,580.9375 594.0719,580.8594 Q594.2281,580.7813 594.4313,580.7813 Q594.7594,580.7813 595.0094,581.0469 Q595.275,581.2969 595.275,581.6406 Q595.275,581.9844 594.9313,582.3906 Q594.4313,582.9688 593.6344,583.2969 Q592.5563,583.75 591.2594,583.75 Q589.7438,583.75 588.5406,583.125 Q587.5563,582.625 586.8688,581.5625 Q586.1813,580.4844 586.1813,579.2031 L586.1813,578.0469 Q586.1813,576.7188 586.7906,575.5781 Q587.4156,574.4219 588.5094,573.8125 Q589.6031,573.1875 590.8375,573.1875 Q591.5719,573.1875 592.2125,573.3594 Q592.8688,573.5156 593.4156,573.875 Z " fill="#000000"/><text fill="#000000" font-family="sans-serif" font-size="14" lengthAdjust="spacing" textLength="87" x="606.35" y="583.7285">SurgeryRoom</text><line style="stroke:#1E90FF;stroke-width:0.5;" x1="569" x2="703" y1="594" y2="594"/><text fill="#000000" font-family="sans-serif" font-size="14" lengthAdjust="spacing" textLength="81" x="574" y="612.5332">roomNumber</text><text fill="#000000" font-family="sans-serif" font-size="14" lengthAdjust="spacing" textLength="27" x="574" y="630.1426">type</text><text fill="#000000" font-family="sans-serif" font-size="14" lengthAdjust="spacing" textLength="72" x="574" y="647.752">roomStatus</text><text fill="#000000" font-family="sans-serif" font-size="14" lengthAdjust="spacing" textLength="52" x="574" y="665.3613">capacity</text><text fill="#000000" font-family="sans-serif" font-size="14" lengthAdjust="spacing" textLength="124" x="574" y="682.9707">assignedEquipment</text><text fill="#000000" font-family="sans-serif" font-size="14" lengthAdjust="spacing" textLength="112" x="574" y="700.5801">maintenenceSlots</text></g><!--class Specialization--><g id="elem_Specialization"><rect codeLine="78" fill="#D8F5FF" height="57.6094" id="Specialization" rx="2.5" ry="2.5" style="stroke:#1E90FF;stroke-width:0.5;" width="118" x="1335" y="292"/><ellipse cx="1350" cy="308" fill="#ADD1B2" rx="11" ry="11" style="stroke:#181818;stroke-width:1.0;"/><path d="M1352.7656,303.875 Q1352.9219,303.6563 1353.1094,303.5469 Q1353.2969,303.4375 1353.5156,303.4375 Q1353.8906,303.4375 1354.125,303.7031 Q1354.3594,303.9531 1354.3594,304.5625 L1354.3594,306.0156 Q1354.3594,306.625 1354.125,306.8906 Q1353.8906,307.1563 1353.5156,307.1563 Q1353.1719,307.1563 1352.9688,306.9531 Q1352.7656,306.7656 1352.6563,306.25 Q1352.6094,305.8906 1352.4219,305.7031 Q1352.0938,305.3281 1351.4844,305.1094 Q1350.875,304.8906 1350.25,304.8906 Q1349.4844,304.8906 1348.8438,305.2188 Q1348.2188,305.5469 1347.7188,306.2969 Q1347.2344,307.0469 1347.2344,308.0781 L1347.2344,309.1719 Q1347.2344,310.4063 1348.125,311.2344 Q1349.0156,312.0469 1350.6094,312.0469 Q1351.5469,312.0469 1352.2031,311.7969 Q1352.5938,311.6406 1353.0156,311.2031 Q1353.2813,310.9375 1353.4219,310.8594 Q1353.5781,310.7813 1353.7813,310.7813 Q1354.1094,310.7813 1354.3594,311.0469 Q1354.625,311.2969 1354.625,311.6406 Q1354.625,311.9844 1354.2813,312.3906 Q1353.7813,312.9688 1352.9844,313.2969 Q1351.9063,313.75 1350.6094,313.75 Q1349.0938,313.75 1347.8906,313.125 Q1346.9063,312.625 1346.2188,311.5625 Q1345.5313,310.4844 1345.5313,309.2031 L1345.5313,308.0469 Q1345.5313,306.7188 1346.1406,305.5781 Q1346.7656,304.4219 1347.8594,303.8125 Q1348.9531,303.1875 1350.1875,303.1875 Q1350.9219,303.1875 1351.5625,303.3594 Q1352.2188,303.5156 1352.7656,303.875 Z " fill="#000000"/><text fill="#000000" font-family="sans-serif" font-size="14" lengthAdjust="spacing" textLength="86" x="1364" y="313.7285">Specialization</text><line style="stroke:#1E90FF;stroke-width:0.5;" x1="1336" x2="1452" y1="324" y2="324"/><text fill="#000000" font-family="sans-serif" font-size="14" lengthAdjust="spacing" textLength="35" x="1341" y="342.5332">name</text></g><!--class MedicalRecord--><g id="elem_MedicalRecord"><rect codeLine="82" fill="#D8F5FF" height="92.8281" id="MedicalRecord" rx="2.5" ry="2.5" style="stroke:#1E90FF;stroke-width:0.5;" width="180" x="7" y="200.5"/><ellipse cx="46.3" cy="216.5" fill="#ADD1B2" rx="11" ry="11" style="stroke:#181818;stroke-width:1.0;"/><path d="M49.0656,212.375 Q49.2219,212.1563 49.4094,212.0469 Q49.5969,211.9375 49.8156,211.9375 Q50.1906,211.9375 50.425,212.2031 Q50.6594,212.4531 50.6594,213.0625 L50.6594,214.5156 Q50.6594,215.125 50.425,215.3906 Q50.1906,215.6563 49.8156,215.6563 Q49.4719,215.6563 49.2688,215.4531 Q49.0656,215.2656 48.9563,214.75 Q48.9094,214.3906 48.7219,214.2031 Q48.3938,213.8281 47.7844,213.6094 Q47.175,213.3906 46.55,213.3906 Q45.7844,213.3906 45.1438,213.7188 Q44.5188,214.0469 44.0188,214.7969 Q43.5344,215.5469 43.5344,216.5781 L43.5344,217.6719 Q43.5344,218.9063 44.425,219.7344 Q45.3156,220.5469 46.9094,220.5469 Q47.8469,220.5469 48.5031,220.2969 Q48.8938,220.1406 49.3156,219.7031 Q49.5813,219.4375 49.7219,219.3594 Q49.8781,219.2813 50.0813,219.2813 Q50.4094,219.2813 50.6594,219.5469 Q50.925,219.7969 50.925,220.1406 Q50.925,220.4844 50.5813,220.8906 Q50.0813,221.4688 49.2844,221.7969 Q48.2063,222.25 46.9094,222.25 Q45.3938,222.25 44.1906,221.625 Q43.2063,221.125 42.5188,220.0625 Q41.8313,218.9844 41.8313,217.7031 L41.8313,216.5469 Q41.8313,215.2188 42.4406,214.0781 Q43.0656,212.9219 44.1594,212.3125 Q45.2531,211.6875 46.4875,211.6875 Q47.2219,211.6875 47.8625,211.8594 Q48.5188,212.0156 49.0656,212.375 Z " fill="#000000"/><text fill="#000000" font-family="sans-serif" font-size="14" lengthAdjust="spacing" textLength="94" x="65.7" y="222.2285">MedicalRecord</text><line style="stroke:#1E90FF;stroke-width:0.5;" x1="8" x2="186" y1="232.5" y2="232.5"/><text fill="#000000" font-family="sans-serif" font-size="14" lengthAdjust="spacing" textLength="143" x="13" y="251.0332">medicalRecordNumber</text><text fill="#000000" font-family="sans-serif" font-size="14" lengthAdjust="spacing" textLength="168" x="13" y="268.6426">allergiesMedicalConditions</text><text fill="#000000" font-family="sans-serif" font-size="14" lengthAdjust="spacing" textLength="121" x="13" y="286.252">appointmentHistory</text></g><!--link Patient to Phone--><g id="link_Patient_Phone"><path codeLine="88" d="M982.392,109.5993 C1062.132,123.4893 1189.55,148.57 1305,186 C1317.66,190.11 1325.4924,193.003 1337.8524,198.283 " fill="none" id="Patient-Phone" style="stroke:#1E90FF;stroke-width:1.0;"/><polygon fill="#1E90FF" points="970.57,107.54,975.7946,112.5103,982.392,109.5993,977.1674,104.629,970.57,107.54" style="stroke:#1E90FF;stroke-width:1.0;"/><polygon fill="#1E90FF" points="1343.37,200.64,1336.6649,193.426,1338.772,198.6758,1333.5222,200.7829,1343.37,200.64" style="stroke:#1E90FF;stroke-width:1.0;"/><text fill="#000000" font-family="sans-serif" font-size="13" lengthAdjust="spacing" textLength="80" x="1099" y="127.4951">phoneNumber</text><text fill="#000000" font-family="sans-serif" font-size="13" lengthAdjust="spacing" textLength="7" x="978.5562" y="123.1738">1</text><text fill="#000000" font-family="sans-serif" font-size="13" lengthAdjust="spacing" textLength="7" x="1328.4197" y="211.9336">1</text></g><!--link Staff to Phone--><g id="link_Staff_Phone"><path codeLine="89" d="M1204.7412,297.2986 C1237.4512,288.8786 1268.36,279.85 1305,266 C1317.67,261.21 1325.5851,257.8732 1337.9451,252.0332 " fill="none" id="Staff-Phone" style="stroke:#1E90FF;stroke-width:1.0;"/><polygon fill="#1E90FF" points="1193.12,300.29,1199.9277,302.668,1204.7412,297.2986,1197.9334,294.9206,1193.12,300.29" style="stroke:#1E90FF;stroke-width:1.0;"/><polygon fill="#1E90FF" points="1343.37,249.47,1333.5238,249.6982,1338.8492,251.606,1336.9414,256.9315,1343.37,249.47" style="stroke:#1E90FF;stroke-width:1.0;"/><text fill="#000000" font-family="sans-serif" font-size="13" lengthAdjust="spacing" textLength="80" x="1224" y="262.4951">phoneNumber</text><text fill="#000000" font-family="sans-serif" font-size="13" lengthAdjust="spacing" textLength="7" x="1200.8627" y="313.1611">1</text><text fill="#000000" font-family="sans-serif" font-size="13" lengthAdjust="spacing" textLength="7" x="1328.4197" y="267.9355">1</text></g><!--link Patient to Users--><g id="link_Patient_Users"><path codeLine="90" d="M982.6627,94.3212 C1086.0327,90.7112 1267.2236,84.3892 1349.7636,81.5092 " fill="none" id="Patient-Users" style="stroke:#1E90FF;stroke-width:1.0;"/><polygon fill="#1E90FF" points="970.67,94.74,976.806,98.5282,982.6627,94.3212,976.5267,90.533,970.67,94.74" style="stroke:#1E90FF;stroke-width:1.0;"/><polygon fill="#1E90FF" points="1355.76,81.3,1346.626,77.6163,1350.763,81.4744,1346.905,85.6114,1355.76,81.3" style="stroke:#1E90FF;stroke-width:1.0;"/><text fill="#000000" font-family="sans-serif" font-size="13" lengthAdjust="spacing" textLength="25" x="1126.5" y="84.4951">user</text><text fill="#000000" font-family="sans-serif" font-size="13" lengthAdjust="spacing" textLength="7" x="978.6678" y="108.8938">1</text><text fill="#000000" font-family="sans-serif" font-size="13" lengthAdjust="spacing" textLength="7" x="1341.0642" y="96.5739">1</text></g><!--link Staff to Users--><g id="link_Staff_Users"><path codeLine="91" d="M1189.7565,267.1803 C1238.1465,222.6103 1304.747,161.2851 1351.427,118.2851 " fill="none" id="Staff-Users" style="stroke:#1E90FF;stroke-width:1.0;"/><polygon fill="#1E90FF" points="1180.93,275.31,1188.0532,274.1873,1189.7565,267.1803,1182.6333,268.303,1180.93,275.31" style="stroke:#1E90FF;stroke-width:1.0;"/><polygon fill="#1E90FF" points="1355.84,114.22,1346.5104,117.3757,1352.1625,117.6076,1351.9305,123.2597,1355.84,114.22" style="stroke:#1E90FF;stroke-width:1.0;"/><text fill="#000000" font-family="sans-serif" font-size="13" lengthAdjust="spacing" textLength="25" x="1251.5" y="159.4951">user</text><text fill="#000000" font-family="sans-serif" font-size="13" lengthAdjust="spacing" textLength="7" x="1180.7753" y="264.6784">1</text><text fill="#000000" font-family="sans-serif" font-size="13" lengthAdjust="spacing" textLength="7" x="1340.8986" y="135.8296">1</text></g><!--link Staff to Specialization--><g id="link_Staff_Specialization"><path codeLine="92" d="M1204.9421,322.5401 C1214.8821,323.7501 1213.28,323.36 1223,324 C1260.11,326.45 1295.8749,326.0027 1328.7249,324.6727 " fill="none" id="Staff-Specialization" style="stroke:#1E90FF;stroke-width:1.0;"/><polygon fill="#1E90FF" points="1193.03,321.09,1198.5027,325.7857,1204.9421,322.5401,1199.4694,317.8443,1193.03,321.09" style="stroke:#1E90FF;stroke-width:1.0;"/><polygon fill="#1E90FF" points="1334.72,324.43,1325.5656,320.7974,1329.7241,324.6323,1325.8892,328.7908,1334.72,324.43" style="stroke:#1E90FF;stroke-width:1.0;"/><text fill="#000000" font-family="sans-serif" font-size="13" lengthAdjust="spacing" textLength="79" x="1224.5" y="320.4951">specialization</text><text fill="#000000" font-family="sans-serif" font-size="13" lengthAdjust="spacing" textLength="7" x="1201.1202" y="336.8571">1</text><text fill="#000000" font-family="sans-serif" font-size="13" lengthAdjust="spacing" textLength="7" x="1320.0687" y="339.3634">1</text></g><!--link OperationRequest to OperationType--><g id="link_OperationRequest_OperationType"><path codeLine="94" d="M722.0379,381.002 C744.9479,376.532 758.36,373.07 781,366 C790.77,362.95 795.2101,361.5343 805.1401,357.7143 " fill="none" id="OperationRequest-OperationType" style="stroke:#1E90FF;stroke-width:1.0;"/><polygon fill="#1E90FF" points="710.26,383.3,716.915,386.077,722.0379,381.002,715.383,378.225,710.26,383.3" style="stroke:#1E90FF;stroke-width:1.0;"/><polygon fill="#1E90FF" points="810.74,355.56,800.9039,355.0581,806.0734,357.3552,803.7763,362.5247,810.74,355.56" style="stroke:#1E90FF;stroke-width:1.0;"/><text fill="#000000" font-family="sans-serif" font-size="13" lengthAdjust="spacing" textLength="25" x="748" y="362.4951">type</text><text fill="#000000" font-family="sans-serif" font-size="13" lengthAdjust="spacing" textLength="7" x="717.9145" y="396.4267">1</text><text fill="#000000" font-family="sans-serif" font-size="13" lengthAdjust="spacing" textLength="7" x="795.9498" y="373.0807">1</text></g><!--link OperationRequest to Staff--><g id="link_OperationRequest_Staff"><path codeLine="95" d="M722.0032,411.3211 C796.3732,423.0611 902.24,431.59 999,403 C1034.01,392.65 1063.7334,374.0641 1089.5934,354.2941 " fill="none" id="OperationRequest-Staff" style="stroke:#1E90FF;stroke-width:1.0;"/><polygon fill="#1E90FF" points="710.15,409.45,715.4529,414.3366,722.0032,411.3211,716.7003,406.4345,710.15,409.45" style="stroke:#1E90FF;stroke-width:1.0;"/><polygon fill="#1E90FF" points="1094.36,350.65,1084.7807,352.9384,1090.3878,353.6867,1089.6395,359.2939,1094.36,350.65" style="stroke:#1E90FF;stroke-width:1.0;"/><text fill="#000000" font-family="sans-serif" font-size="13" lengthAdjust="spacing" textLength="24" x="893" y="399.4951">staff</text><text fill="#000000" font-family="sans-serif" font-size="13" lengthAdjust="spacing" textLength="7" x="718.1577" y="425.2558">1</text><text fill="#000000" font-family="sans-serif" font-size="13" lengthAdjust="spacing" textLength="7" x="1078.7851" y="372.2884">1</text></g><!--link OperationRequest to Patient--><g id="link_OperationRequest_Patient"><path codeLine="96" d="M720.4996,356.4538 C745.4696,342.5238 761.52,330.15 781,308 C802.82,283.2 795.28,269.05 811,240 C827.21,210.05 844.265,183.1243 861.835,157.0743 " fill="none" id="OperationRequest-Patient" style="stroke:#1E90FF;stroke-width:1.0;"/><polygon fill="#1E90FF" points="710.02,362.3,717.2085,362.8701,720.4996,356.4538,713.311,355.8837,710.02,362.3" style="stroke:#1E90FF;stroke-width:1.0;"/><polygon fill="#1E90FF" points="865.19,152.1,856.8412,157.3248,862.3941,156.2453,863.4737,161.7982,865.19,152.1" style="stroke:#1E90FF;stroke-width:1.0;"/><text fill="#000000" font-family="sans-serif" font-size="13" lengthAdjust="spacing" textLength="39" x="741" y="304.4951">patient</text><text fill="#000000" font-family="sans-serif" font-size="13" lengthAdjust="spacing" textLength="7" x="718.0143" y="373.2435">1</text><text fill="#000000" font-family="sans-serif" font-size="13" lengthAdjust="spacing" textLength="7" x="852.3702" y="174.0684">1</text></g><!--link OperationType to Staff--><g id="link_OperationType_Staff"><path codeLine="98" d="M1011.03,313 C1040.15,313 1053.28,313 1078.68,313 " fill="none" id="OperationType-Staff" style="stroke:#1E90FF;stroke-width:1.0;"/><polygon fill="#1E90FF" points="999.03,313,1005.03,317,1011.03,313,1005.03,309,999.03,313" style="stroke:#1E90FF;stroke-width:1.0;"/><polygon fill="#1E90FF" points="1084.68,313,1075.68,309,1079.68,313,1075.68,317,1084.68,313" style="stroke:#1E90FF;stroke-width:1.0;"/><text fill="#000000" font-family="sans-serif" font-size="13" lengthAdjust="spacing" textLength="24" x="1030" y="309.4951">staff</text><text fill="#000000" font-family="sans-serif" font-size="13" lengthAdjust="spacing" textLength="7" x="1007.1067" y="327.1541">1</text><text fill="#000000" font-family="sans-serif" font-size="13" lengthAdjust="spacing" textLength="7" x="1069.9104" y="327.579">1</text></g><!--link Appointment to SurgeryRoom--><g id="link_Appointment_SurgeryRoom"><path codeLine="100" d="M427.7864,484.5746 C444.6664,509.8946 461.19,530.54 487,553 C510.93,573.82 535.6768,588.9405 562.4568,602.6205 " fill="none" id="Appointment-SurgeryRoom" style="stroke:#1E90FF;stroke-width:1.0;"/><polygon fill="#1E90FF" points="421.13,474.59,421.13,481.8011,427.7864,484.5746,427.7864,477.3635,421.13,474.59" style="stroke:#1E90FF;stroke-width:1.0;"/><polygon fill="#1E90FF" points="567.8,605.35,561.6048,597.6936,563.3473,603.0754,557.9655,604.8179,567.8,605.35" style="stroke:#1E90FF;stroke-width:1.0;"/><text fill="#000000" font-family="sans-serif" font-size="13" lengthAdjust="spacing" textLength="29" x="495" y="549.4951">room</text><text fill="#000000" font-family="sans-serif" font-size="13" lengthAdjust="spacing" textLength="7" x="417.7342" y="495.7986">1</text><text fill="#000000" font-family="sans-serif" font-size="13" lengthAdjust="spacing" textLength="7" x="552.9578" y="616.5152">1</text></g><!--link Appointment to OperationRequest--><g id="link_Appointment_OperationRequest"><path codeLine="101" d="M469.11,417.619 C501.31,413.229 522.6248,410.3193 555.9748,405.7793 " fill="none" id="Appointment-OperationRequest" style="stroke:#1E90FF;stroke-width:1.0;"/><polygon fill="#1E90FF" points="457.22,419.24,463.7053,422.3928,469.11,417.619,462.6247,414.4661,457.22,419.24" style="stroke:#1E90FF;stroke-width:1.0;"/><polygon fill="#1E90FF" points="561.92,404.97,552.4627,402.2205,556.9657,405.6444,553.5418,410.1474,561.92,404.97" style="stroke:#1E90FF;stroke-width:1.0;"/><text fill="#000000" font-family="sans-serif" font-size="13" lengthAdjust="spacing" textLength="43" x="488" y="406.4951">request</text><text fill="#000000" font-family="sans-serif" font-size="13" lengthAdjust="spacing" textLength="7" x="465.1658" y="432.6775">1</text><text fill="#000000" font-family="sans-serif" font-size="13" lengthAdjust="spacing" textLength="7" x="546.9196" y="420.3138">1</text></g><!--link Appointment to Staff--><g id="link_Appointment_Staff"><path codeLine="102" d="M468.983,450.0112 C500.253,458.2612 526.96,463.91 562,468 C755.68,490.61 813.06,487.74 999,429 C1025.73,420.56 1032.58,416.81 1055,400 C1073.87,385.85 1088.2601,371.7122 1102.9101,355.3322 " fill="none" id="Appointment-Staff" style="stroke:#1E90FF;stroke-width:1.0;"/><polygon fill="#1E90FF" points="457.38,446.95,462.1611,452.3483,468.983,450.0112,464.2019,444.613,457.38,446.95" style="stroke:#1E90FF;stroke-width:1.0;"/><polygon fill="#1E90FF" points="1106.91,350.86,1097.9287,354.9018,1103.5768,354.5869,1103.8917,360.2349,1106.91,350.86" style="stroke:#1E90FF;stroke-width:1.0;"/><text fill="#000000" font-family="sans-serif" font-size="13" lengthAdjust="spacing" textLength="24" x="748.5" y="475.4951">staff</text><text fill="#000000" font-family="sans-serif" font-size="13" lengthAdjust="spacing" textLength="7" x="464.9138" y="463.4214">1</text><text fill="#000000" font-family="sans-serif" font-size="13" lengthAdjust="spacing" textLength="20" x="1103.1133" y="372.2487">1..*</text></g><!--link Appointment to Patient--><g id="link_Appointment_Patient"><path codeLine="103" d="M467.4765,379.7058 C498.7465,359.7558 526.94,342.32 562,322 C626.51,284.61 647.13,283.09 710,243 C754.78,214.44 797.7636,182.3389 834.6536,153.3289 " fill="none" id="Appointment-Patient" style="stroke:#1E90FF;stroke-width:1.0;"/><polygon fill="#1E90FF" points="457.36,386.16,464.5696,386.305,467.4765,379.7058,460.2668,379.5607,457.36,386.16" style="stroke:#1E90FF;stroke-width:1.0;"/><polygon fill="#1E90FF" points="839.37,149.62,829.8229,152.0391,835.4397,152.7108,834.7681,158.3276,839.37,149.62" style="stroke:#1E90FF;stroke-width:1.0;"/><text fill="#000000" font-family="sans-serif" font-size="13" lengthAdjust="spacing" textLength="39" x="616.5" y="239.4951">patient</text><text fill="#000000" font-family="sans-serif" font-size="13" lengthAdjust="spacing" textLength="7" x="464.8916" y="395.9825">1</text><text fill="#000000" font-family="sans-serif" font-size="13" lengthAdjust="spacing" textLength="7" x="824.3768" y="170.1193">1</text></g><!--link MedicalRecord to Patient--><g id="link_MedicalRecord_Patient"><path codeLine="106" d="M155.1353,192.6838 C175.4453,175.7438 191.17,166 217,156 C432.75,72.5 708.2669,81.0002 833.3069,90.4002 " fill="none" id="MedicalRecord-Patient" style="stroke:#1E90FF;stroke-width:1.0;"/><polygon fill="#1E90FF" points="145.92,200.37,153.0897,199.5987,155.1353,192.6838,147.9656,193.4551,145.92,200.37" style="stroke:#1E90FF;stroke-width:1.0;"/><polygon fill="#1E90FF" points="839.29,90.85,830.6152,86.1866,834.3041,90.4752,830.0155,94.1641,839.29,90.85" style="stroke:#1E90FF;stroke-width:1.0;"/><text fill="#000000" font-family="sans-serif" font-size="13" lengthAdjust="spacing" textLength="39" x="490" y="88.4951">patient</text><text fill="#000000" font-family="sans-serif" font-size="13" lengthAdjust="spacing" textLength="7" x="145.8749" y="189.54">1</text><text fill="#000000" font-family="sans-serif" font-size="13" lengthAdjust="spacing" textLength="7" x="824.2876" y="104.5541">1</text></g><!--link MedicalRecord to Staff--><g id="link_MedicalRecord_Staff"><path codeLine="107" d="M198.9758,228.2316 C363.2558,200.7716 711.42,158.98 999,240 C1028.91,248.43 1054.5484,260.8121 1079.5584,275.3021 " fill="none" id="MedicalRecord-Staff" style="stroke:#1E90FF;stroke-width:1.0;"/><polygon fill="#1E90FF" points="187.14,230.21,193.7174,233.1661,198.9758,228.2316,192.3984,225.2755,187.14,230.21" style="stroke:#1E90FF;stroke-width:1.0;"/><polygon fill="#1E90FF" points="1084.75,278.31,1078.9678,270.3371,1080.4237,275.8035,1074.9573,277.2593,1084.75,278.31" style="stroke:#1E90FF;stroke-width:1.0;"/><text fill="#000000" font-family="sans-serif" font-size="13" lengthAdjust="spacing" textLength="24" x="624" y="190.4951">staff</text><text fill="#000000" font-family="sans-serif" font-size="13" lengthAdjust="spacing" textLength="7" x="194.8946" y="242.9989">1</text><text fill="#000000" font-family="sans-serif" font-size="13" lengthAdjust="spacing" textLength="13" x="1063.9664" y="288.394">..*</text></g><!--link MedicalRecord to OperationRequest--><g id="link_MedicalRecord_OperationRequest"><path codeLine="108" d="M198.8488,274.7981 C303.8288,303.7281 458.7258,346.4155 556.1258,373.2655 " fill="none" id="MedicalRecord-OperationRequest" style="stroke:#1E90FF;stroke-width:1.0;"/><polygon fill="#1E90FF" points="187.28,271.61,192.0017,277.0603,198.8488,274.7981,194.1271,269.3478,187.28,271.61" style="stroke:#1E90FF;stroke-width:1.0;"/><polygon fill="#1E90FF" points="561.91,374.86,554.2967,368.612,557.0898,373.5312,552.1706,376.3244,561.91,374.86" style="stroke:#1E90FF;stroke-width:1.0;"/><text fill="#000000" font-family="sans-serif" font-size="13" lengthAdjust="spacing" textLength="50" x="367" y="308.4951">requests</text><text fill="#000000" font-family="sans-serif" font-size="13" lengthAdjust="spacing" textLength="7" x="195.0462" y="287.8273">1</text><text fill="#000000" font-family="sans-serif" font-size="13" lengthAdjust="spacing" textLength="13" x="540.9769" y="387.1559">..*</text></g><!--link MedicalRecord to Appointment--><g id="link_MedicalRecord_Appointment"><path codeLine="109" d="M150.4997,301.8793 C171.7797,322.5893 189.94,337.76 217,355 C251.12,376.73 287.1908,392.4134 321.2108,404.9634 " fill="none" id="MedicalRecord-Appointment" style="stroke:#1E90FF;stroke-width:1.0;"/><polygon fill="#1E90FF" points="141.9,293.51,143.4101,300.5612,150.4997,301.8793,148.9896,294.8281,141.9,293.51" style="stroke:#1E90FF;stroke-width:1.0;"/><polygon fill="#1E90FF" points="326.84,407.04,319.7806,400.1723,322.149,405.3095,317.0118,407.6779,326.84,407.04" style="stroke:#1E90FF;stroke-width:1.0;"/><text fill="#000000" font-family="sans-serif" font-size="13" lengthAdjust="spacing" textLength="78" x="218" y="351.4951">appointments</text><text fill="#000000" font-family="sans-serif" font-size="13" lengthAdjust="spacing" textLength="7" x="140.7219" y="314.7074">1</text><text fill="#000000" font-family="sans-serif" font-size="13" lengthAdjust="spacing" textLength="13" x="306.0022" y="419.1462">..*</text></g><!--SRC=[pLFBRjim4BphAuZq5Y11UoXGw530ZfFMG9e4Lle1jBYI5w58bLorK8B-UrUaR4kA7zVgj2HdXxF3qGOLY0feOvLFD1Gao0g7vOQ4GWSveJL9ub_GrDB9IkHQUZyZShXk29QvDHc-WlZu3YFU4i7VFHPmZmRcrYbmDrPR9nPMbU3cke4nHEOlfREDKH4sUtgwNzxCdfUF3m4tFV-m-7Bt-UukdCsSityEiX-v-EzGSCtCieICMWsY6rgQKiDe9EdK_pzHDFwd1-UZrguqiefzAwjZSLj9rA4gq7bws0AuUxye6gt3OiVx90d1K6HMak2ncAEZJLX_0yEYGia6iiA7fbht6r21Ay7axOqr97FQKsOaYo8IQip1U1YqoTyiKwvH8xMPjkJtVOyrEDb5SmM_6l2z9XSNoqLK259fVeG5AmqRjKFhc2iiF4bg3Z4-jpL4EkAgvzfvs5t1luKAmkTjLaFE-bv3PvpL4rPyereqaM_WtyQQdhhkodxKtVcihYqQgdOUo_t6TYPcdXdrZBsS0IAR39GrxBbhLzPMlJjS3TpjfjljzytTCfVyDsnTOY8i3QXRdhhkRWcx71z3OFX5OV8kmG-vDUHjxzqEyGCKvbAlGaOYe1fk3TzVQyuDWkzxE3qAEru_dVqxUhAkxMxfGoekFbs8owkhhw48pgSZryC3daKTP0l_LoeQVvZcpF7OebJuqJf9fj4UTuzYciP7FDqH9AHTtelY3BIVbYs8nK1CTzq9tcIGtGbi7yCqHEquT2ektVxGnrgkhoydEevolnyj6INn3FeOzhs2ayYZ4_hJVOEnqc7kVV8F]--></g></svg>